# xmcd
#
# Track frame offsets: 
#        180
#        11103
#        22631
#        38179
#        52857
#        72976
#        94107
#        111170
#        123377
#        142540
#        155778
#        172429
#        190127
#        204284
#        215253
#
# Disc length: 3095 seconds
#
# Revision: 0
# Processed by: cddbd v1.4PL0 Copyright (c) Steve Scherf et al.
# Submitted via: ExactAudioCopy v0.90b4
#
DISCID=c80c150f
DTITLE=Black hills country band - Part three
DYEAR=1900
DGENRE=
TTITLE0=Uncle pen
TTITLE1=Right now
TTITLE2=Baby ride easy
TTITLE3=Rambling fever
TTITLE4=Neon moon
TTITLE5=Red moon over Lugano
TTITLE6=It's no use
TTITLE7=Gallia polka
TTITLE8=I whish I knew
TTITLE9=Leaving Louisiana
TTITLE10=Blue rose is
TTITLE11=The south's gonna do it again
TTITLE12=Next time I'm in town
TTITLE13=Lost
TTITLE14=Tom Dooley
EXTD=
EXTT0=
EXTT1=
EXTT2=
EXTT3=
EXTT4=
EXTT5=
EXTT6=
EXTT7=
EXTT8=
EXTT9=
EXTT10=
EXTT11=
EXTT12=
EXTT13=
EXTT14=
PLAYORDER=
